<?xml version="1.0" encoding="UTF-8"?>
<svg width="62px" height="60px" viewBox="0 0 62 60" version="1.1" xmlns="http://www.w3.org/2000/svg" xmlns:xlink="http://www.w3.org/1999/xlink">
  <!-- Generator: Sketch 44.1 (41455) - http://www.bohemiancoding.com/sketch -->
  <title>Group 52</title>
  <desc>Created with Sketch.</desc>
  <defs>
    <path d="M0.300710829,20.9786751 C0.686917574,9.39247279 10.4079804,0 22.0061566,0 L39.9938434,0 C51.5952233,0 61.3129775,9.38932566 61.6992892,20.9786751 L62,30 L61.6992892,39.0213249 C61.3130824,50.6075272 51.5920196,60 39.9938434,60 L22.0061566,60 C10.4047767,60 0.687022478,50.6106743 0.300710829,39.0213249 L0,30 L0.300710829,20.9786751 Z" id="path-1"></path>
    <path d="M28.8585927,11.1028108 L21.6746496,11.1028108 L21.6746496,11.1028108 C21.1223649,11.1028108 20.6746496,11.5505261 20.6746496,12.1028108 L20.6746496,12.4675359 L17.7052595,12.5123646 L17.7052595,12.5123646 C17.1589231,12.5206126 16.7203547,12.965852 16.7203547,13.5122506 L16.7203547,18.565835 L16.7203547,18.565835 C16.7203547,19.1181197 17.16807,19.565835 17.7203547,19.565835 L18.7433153,19.565835 L18.7433153,20.0501793 L18.7433153,20.0501793 C18.7433153,20.602464 19.1910305,21.0501793 19.7433153,21.0501793 L25.0176288,21.0501793 L25.0176288,21.0501793 C25.2701862,21.0501793 25.5133899,20.9546162 25.6983897,20.782685 L26.4404086,20.093083 L28.8585927,20.093083 L28.8585927,20.093083 C29.4108774,20.093083 29.8585927,19.6453677 29.8585927,19.093083 L29.8585927,12.1028108 L29.8585927,12.1028108 C29.8585927,11.5505261 29.4108774,11.1028108 28.8585927,11.1028108 Z" id="path-2"></path>
    <path d="M11.1805225,2.33841722 L3.99657947,2.33841722 L3.99657947,2.33841722 C3.44429472,2.33841722 2.99657947,2.78613247 2.99657947,3.33841722 L2.99657947,3.70314223 L0.0271893047,3.74797095 L0.0271893047,3.74797095 C-0.519147086,3.75621897 -0.957715469,4.20145837 -0.957715469,4.74785701 L-0.957715469,9.80144133 L-0.957715469,9.80144133 C-0.957715469,10.3537261 -0.510000219,10.8014413 0.0422845307,10.8014413 L1.06524512,10.8014413 L1.06524512,11.2857856 L1.06524512,11.2857856 C1.06524512,11.8380704 1.51296037,12.2857856 2.06524512,12.2857856 L7.33955863,12.2857856 L7.33955863,12.2857856 C7.59211604,12.2857856 7.83531976,12.1902226 8.0203195,12.0182914 L8.76233838,11.3286894 L11.1805225,11.3286894 L11.1805225,11.3286894 C11.7328072,11.3286894 12.1805225,10.8809741 12.1805225,10.3286894 L12.1805225,3.33841722 L12.1805225,3.33841722 C12.1805225,2.78613247 11.7328072,2.33841722 11.1805225,2.33841722 Z" id="path-3"></path>
  </defs>
  <g id="Hybrid" stroke="none" stroke-width="1" fill="none" fill-rule="evenodd">
    <g id="*导航_normal&amp;selected-间距调整" transform="translate(-780.000000, -733.000000)">
      <g id="Group-52" transform="translate(780.000000, 733.000000)">
        <g id="Rectangle-11-Copy">
          <use fill="#FAFDFF" fill-rule="evenodd" xlink:href="#path-1"></use>
          <path stroke="#97A4B6" stroke-width="1" d="M0.800433282,20.9953326 L0.499722453,29.9833426 L0.800433282,39.0046674 C1.17772202,50.3233297 10.6732548,59.5 22.0061566,59.5 L39.9938434,59.5 C51.3235597,59.5 60.8223835,50.3201644 61.1995667,39.0046674 L61.5002775,30.0166574 L61.1995667,20.9953326 C60.822278,9.67667031 51.3267452,0.5 39.9938434,0.5 L22.0061566,0.5 C10.6764403,0.5 1.17761651,9.67983562 0.800433282,20.9953326 Z"></path>
        </g>
        <g id="Group-77" transform="translate(30.750000, 30.933013) rotate(-60.000000) translate(-30.750000, -30.933013) translate(16.250000, 18.433013)">
          <g id="Path" transform="translate(23.289474, 16.076495) rotate(-90.000000) translate(-23.289474, -16.076495) ">
            <use fill-opacity="0.39770154" fill="#97A4B6" fill-rule="evenodd" xlink:href="#path-2"></use>
            <path stroke="#97A4B6" stroke-width="1" d="M28.8585927,11.6028108 L21.6746496,11.6028108 C21.3985073,11.6028108 21.1746496,11.8266685 21.1746496,12.1028108 L21.1746496,12.9600444 L17.7128071,13.0123076 C17.4396389,13.0164316 17.2203547,13.2390513 17.2203547,13.5122506 L17.2203547,18.565835 C17.2203547,18.8419773 17.4442123,19.065835 17.7203547,19.065835 L18.7433153,19.065835 L19.2433153,19.065835 L19.2433153,20.0501793 C19.2433153,20.3263216 19.4671729,20.5501793 19.7433153,20.5501793 L25.0176288,20.5501793 C25.1439075,20.5501793 25.2655094,20.5023977 25.3580092,20.4164321 L26.2439414,19.593083 L28.8585927,19.593083 C29.134735,19.593083 29.3585927,19.3692254 29.3585927,19.093083 L29.3585927,12.1028108 C29.3585927,11.8266685 29.134735,11.6028108 28.8585927,11.6028108 Z"></path>
          </g>
          <g id="Path" transform="translate(5.611404, 7.312101) scale(-1, -1) rotate(-90.000000) translate(-5.611404, -7.312101) ">
            <use fill-opacity="0.39770154" fill="#97A4B6" fill-rule="evenodd" xlink:href="#path-3"></use>
            <path stroke="#97A4B6" stroke-width="1" d="M11.1805225,2.83841722 L3.99657947,2.83841722 C3.72043709,2.83841722 3.49657947,3.06227485 3.49657947,3.33841722 L3.49657947,4.19565073 L0.0347369177,4.24791398 C-0.238431278,4.25203799 -0.457715469,4.47465769 -0.457715469,4.74785701 L-0.457715469,9.80144133 C-0.457715469,10.0775837 -0.233857844,10.3014413 0.0422845307,10.3014413 L1.56524512,10.3014413 L1.56524512,11.2857856 C1.56524512,11.561928 1.78910274,11.7857856 2.06524512,11.7857856 L7.33955863,11.7857856 C7.46583733,11.7857856 7.5874392,11.7380041 7.67993907,11.6520385 L8.56587124,10.8286894 L11.1805225,10.8286894 C11.4566649,10.8286894 11.6805225,10.6048317 11.6805225,10.3286894 L11.6805225,3.33841722 C11.6805225,3.06227485 11.4566649,2.83841722 11.1805225,2.83841722 Z"></path>
          </g>
          <path d="M13.5381643,3.69035088 L4.8645774,3.69035088 C3.64925144,3.69035088 2.66403509,4.67039474 2.66403509,5.89877869 L2.66403509,10.3240283 C2.66403509,11.5437093 3.64717367,12.5324561 4.86111154,12.5324561 L24.045906,12.5324561 C25.2593178,12.5324561 26.2429825,13.5125 26.2429825,14.740884 L26.2429825,19.1661336 C26.2429825,20.3858146 25.2622038,21.3745614 24.0458933,21.3745614 L20.3482456,21.3745614 L16.7353074,21.3745614" id="Path-3" stroke="#97A4B6" stroke-width="1.1" stroke-linejoin="round" transform="translate(14.453509, 12.532456) rotate(-450.000000) translate(-14.453509, -12.532456) "></path>
        </g>
      </g>
    </g>
  </g>
</svg>
