<?xml version="1.0" encoding="UTF-8"?>
<svg width="62px" height="60px" viewBox="0 0 62 60" version="1.1" xmlns="http://www.w3.org/2000/svg" xmlns:xlink="http://www.w3.org/1999/xlink">
  <!-- Generator: Sketch 44.1 (41455) - http://www.bohemiancoding.com/sketch -->
  <title>Group 52</title>
  <desc>Created with Sketch.</desc>
  <defs>
    <path d="M0.300710829,20.9786751 C0.686917574,9.39247279 10.4079804,0 22.0061566,0 L39.9938434,0 C51.5952233,0 61.3129775,9.38932566 61.6992892,20.9786751 L62,30 L61.6992892,39.0213249 C61.3130824,50.6075272 51.5920196,60 39.9938434,60 L22.0061566,60 C10.4047767,60 0.687022478,50.6106743 0.300710829,39.0213249 L0,30 L0.300710829,20.9786751 Z" id="path-1"></path>
    <path d="M28.8585927,11.1028108 L21.6746496,11.1028108 L21.6746496,11.1028108 C21.1223649,11.1028108 20.6746496,11.5505261 20.6746496,12.1028108 L20.6746496,12.4675359 L17.7052595,12.5123646 L17.7052595,12.5123646 C17.1589231,12.5206126 16.7203547,12.965852 16.7203547,13.5122506 L16.7203547,18.565835 L16.7203547,18.565835 C16.7203547,19.1181197 17.16807,19.565835 17.7203547,19.565835 L18.7433153,19.565835 L18.7433153,20.0501793 L18.7433153,20.0501793 C18.7433153,20.602464 19.1910305,21.0501793 19.7433153,21.0501793 L25.0176288,21.0501793 L25.0176288,21.0501793 C25.2701862,21.0501793 25.5133899,20.9546162 25.6983897,20.782685 L26.4404086,20.093083 L28.8585927,20.093083 L28.8585927,20.093083 C29.4108774,20.093083 29.8585927,19.6453677 29.8585927,19.093083 L29.8585927,12.1028108 L29.8585927,12.1028108 C29.8585927,11.5505261 29.4108774,11.1028108 28.8585927,11.1028108 Z" id="path-2"></path>
    <path d="M11.1805225,2.33841722 L3.99657947,2.33841722 L3.99657947,2.33841722 C3.44429472,2.33841722 2.99657947,2.78613247 2.99657947,3.33841722 L2.99657947,3.70314223 L0.0271893047,3.74797095 L0.0271893047,3.74797095 C-0.519147086,3.75621897 -0.957715469,4.20145837 -0.957715469,4.74785701 L-0.957715469,9.80144133 L-0.957715469,9.80144133 C-0.957715469,10.3537261 -0.510000219,10.8014413 0.0422845307,10.8014413 L1.06524512,10.8014413 L1.06524512,11.2857856 L1.06524512,11.2857856 C1.06524512,11.8380704 1.51296037,12.2857856 2.06524512,12.2857856 L7.33955863,12.2857856 L7.33955863,12.2857856 C7.59211604,12.2857856 7.83531976,12.1902226 8.0203195,12.0182914 L8.76233838,11.3286894 L11.1805225,11.3286894 L11.1805225,11.3286894 C11.7328072,11.3286894 12.1805225,10.8809741 12.1805225,10.3286894 L12.1805225,3.33841722 L12.1805225,3.33841722 C12.1805225,2.78613247 11.7328072,2.33841722 11.1805225,2.33841722 Z" id="path-3"></path>
  </defs>
  <g id="Hybrid" stroke="none" stroke-width="1" fill="none" fill-rule="evenodd">
    <g id="*导航_normal&amp;selected-间距调整" transform="translate(-780.000000, -725.000000)">
      <g id="Group-52" transform="translate(780.000000, 733.000000)">
        <g id="Group-77" transform="translate(30.750000, 30.933013)">
          	<text x="-25" y="0" fill="#1890ff" font-size='20px'>A</text>
        </g>
				 <g id="Group-77" transform="translate(30.750000, 30.933013)">
          	<text x="-10" y="0" fill="#1890ff" font-size='20px'>E</text>
        </g>
				 <g id="Group-77" transform="translate(30.750000, 30.933013)">
          	<text x="0" y="0" fill="#1890ff" font-size='20px'>G</text>
        </g>
				 <g id="Group-77" transform="translate(30.750000, 30.933013)">
          	<text x="15" y="0" fill="#1890ff" font-size='20px'>I</text>
        </g>
				 <g id="Group-77" transform="translate(30.750000, 30.933013)">
						<text x="20" y="0" fill="#ffc53d" font-size='20px'>S</text>
        </g>
      </g>
    </g>
  </g>
</svg>
